<svg id="Layer_1" data-name="Layer 1" xmlns="http://www.w3.org/2000/svg" viewBox="0 0 344.16 265.29"><defs><style>.cls-1,.cls-5{fill:#f9f9f9;stroke:#e8e8e8;}.cls-1,.cls-4{stroke-miterlimit:10;}.cls-1,.cls-4,.cls-5{stroke-width:6px;}.cls-2,.cls-4,.cls-6{fill:none;}.cls-2{stroke:#dedede;stroke-width:6.19px;}.cls-2,.cls-5,.cls-6{stroke-linecap:round;stroke-linejoin:round;}.cls-3{fill:#f0f5fd;}.cls-4{stroke:#3a8dee;}.cls-6{stroke:#bec3c7;stroke-width:4px;}.cls-7{fill:#e8e8e8;}</style></defs><path class="cls-1" d="M268.6,110.67H34.35A15.1,15.1,0,0,1,19.26,95.58V53c0-4.12-24.06-23.7-13.51-23.79,3.91,0,24.38,0,28.6,0H268.6a15.09,15.09,0,0,1,15.09,15.08V95.58A15.1,15.1,0,0,1,268.6,110.67Z"/><line class="cls-2" x1="302.47" y1="17.81" x2="291.35" y2="26.9"/><line class="cls-2" x1="312.2" y1="43.87" x2="297.91" y2="42.44"/><line class="cls-2" x1="279.24" y1="3.59" x2="277.81" y2="17.88"/><path class="cls-3" d="M75.55,169.1H309.8A15.08,15.08,0,0,0,324.88,154V119.9c0-4.12,24.07-23.69,13.52-23.79-3.91,0-24.39,0-28.6,0H75.55a15.08,15.08,0,0,0-15.09,15.09V154A15.08,15.08,0,0,0,75.55,169.1Z"/><path class="cls-4" d="M75.55,169.1H309.8A15.08,15.08,0,0,0,324.88,154V119.9c0-4.12,24.07-23.69,13.52-23.79-3.91,0-24.39,0-28.6,0H75.55a15.08,15.08,0,0,0-15.09,15.09V154A15.08,15.08,0,0,0,75.55,169.1Z"/><path class="cls-1" d="M269.53,233.84H34.28a15.09,15.09,0,0,1-15.09-15.09V176.12c0-4.11-24.06-23.69-13.51-23.79,3.91,0,24.38,0,28.6,0H269.53a15.1,15.1,0,0,1,15.09,15.09v51.3A15.09,15.09,0,0,1,269.53,233.84Z"/><line class="cls-5" x1="17.21" y1="242.16" x2="23.58" y2="247.06"/><path class="cls-5" d="M7.68,219.85a14.93,14.93,0,0,0,4.39,18.28"/><line class="cls-6" x1="43.39" y1="176.88" x2="244.23" y2="176.88"/><line class="cls-6" x1="43.39" y1="209.28" x2="190.9" y2="209.28"/><line class="cls-6" x1="43.39" y1="193.08" x2="190.9" y2="193.08"/><ellipse class="cls-7" cx="172.07" cy="257.63" rx="93.71" ry="7.67"/></svg>