<svg width="154" height="89" viewBox="0 0 154 89" fill="none" xmlns="http://www.w3.org/2000/svg">
<rect width="153" height="89" fill="#EAF0F8"/>
<rect x="0.5" y="0.5" width="152" height="88" stroke="#B6C9D4"/>
<line y1="-0.5" x2="89" y2="-0.5" transform="matrix(-3.95728e-08 1 1 4.82828e-08 67.2322 0)" stroke="#B6C9D4"/>
<line y1="-0.5" x2="89" y2="-0.5" transform="matrix(-4.46369e-08 1 1 4.28051e-08 17 0)" stroke="#B6C9D4"/>
<line y1="-0.5" x2="89" y2="-0.5" transform="matrix(-3.95728e-08 1 1 4.82828e-08 26.0046 0)" stroke="#B6C9D4"/>
<line y1="-0.5" x2="89" y2="-0.5" transform="matrix(-3.95728e-08 1 1 4.82828e-08 48.9088 0)" stroke="#B6C9D4"/>
<rect x="0.5" y="-0.5" width="16" height="51" transform="matrix(1 0 0 -1 0 70)" stroke="#B6C9D4"/>
<rect x="0.5" y="-0.5" width="9.3341" height="30" transform="matrix(1 0 0 -1 0 59)" stroke="#B6C9D4"/>
<path fill-rule="evenodd" clip-rule="evenodd" d="M25.5633 31.3618C29.7891 32.4521 33 37.8666 33 44.3819C33 50.8972 29.7891 56.3117 25.5633 57.4019V56.3619C27.0407 55.905 28.4179 54.8077 29.5356 53.1669C31.0383 50.9612 32 47.8582 32 44.3819C32 40.9056 31.0383 37.8026 29.5356 35.5969C28.4179 33.9561 27.0407 32.8588 25.5633 32.4019V31.3618Z" fill="#B6C9D4"/>
<line x1="86.5" y1="-2.41414e-08" x2="86.5" y2="89" stroke="#B6C9D4"/>
<line x1="136.732" y1="-2.14025e-08" x2="136.732" y2="89" stroke="#B6C9D4"/>
<line x1="127.728" y1="-2.41414e-08" x2="127.728" y2="89" stroke="#B6C9D4"/>
<line x1="104.823" y1="-2.41414e-08" x2="104.823" y2="89" stroke="#B6C9D4"/>
<rect x="152.732" y="70.5" width="16" height="51" transform="rotate(180 152.732 70.5)" stroke="#B6C9D4"/>
<rect x="152.732" y="59.5" width="9.3341" height="30" transform="rotate(180 152.732 59.5)" stroke="#B6C9D4"/>
<path fill-rule="evenodd" clip-rule="evenodd" d="M127.669 31.3618C123.443 32.4521 120.232 37.8666 120.232 44.3819C120.232 50.8972 123.443 56.3117 127.669 57.4019V56.3619C126.191 55.905 124.814 54.8077 123.697 53.1669C122.194 50.9612 121.232 47.8582 121.232 44.3819C121.232 40.9056 122.194 37.8026 123.697 35.5969C124.814 33.9561 126.191 32.8588 127.669 32.4019V31.3618Z" fill="#B6C9D4"/>
<line x1="76.2066" y1="37" x2="76.2066" y2="52" stroke="#B6C9D4"/>
</svg>
