<svg width="153" height="89" viewBox="0 0 153 89" fill="none" xmlns="http://www.w3.org/2000/svg">
<rect width="153" height="89" fill="#EAF0F8"/>
<rect x="3.9382" y="2.5" width="145.506" height="83.0449" stroke="#B6C9D4"/>
<line x1="16.545" y1="2" x2="16.5449" y2="86.0449" stroke="#B6C9D4"/>
<line x1="8.85955" y1="48.2247" x2="8.85955" y2="37.5281" stroke="#B6C9D4"/>
<line y1="37.7921" x2="16.236" y2="37.7921" stroke="#B6C9D4"/>
<line y1="47.9157" x2="16.236" y2="47.9157" stroke="#B6C9D4"/>
<line x1="144.14" y1="37.7191" x2="144.14" y2="48.4157" stroke="#B6C9D4"/>
<line x1="153" y1="48.1517" x2="136.764" y2="48.1517" stroke="#B6C9D4"/>
<line x1="153" y1="38.0281" x2="136.764" y2="38.0281" stroke="#B6C9D4"/>
<line x1="112.697" y1="24.2753" x2="106.584" y2="24.2753" stroke="#B6C9D4"/>
<line x1="136.191" y1="24.2753" x2="130.079" y2="24.2753" stroke="#B6C9D4"/>
<line x1="93.0225" y1="24.2753" x2="86.9101" y2="24.2753" stroke="#B6C9D4"/>
<line x1="79.6517" y1="24.2753" x2="73.5393" y2="24.2753" stroke="#B6C9D4"/>
<line x1="66.2809" y1="24.2753" x2="60.1685" y2="24.2753" stroke="#B6C9D4"/>
<line x1="46.2247" y1="24.2753" x2="40.1124" y2="24.2753" stroke="#B6C9D4"/>
<line x1="22.9214" y1="24.2753" x2="16.809" y2="24.2753" stroke="#B6C9D4"/>
<line x1="112.697" y1="64.0056" x2="106.584" y2="64.0056" stroke="#B6C9D4"/>
<line x1="136.191" y1="64.0056" x2="130.079" y2="64.0056" stroke="#B6C9D4"/>
<line x1="129.961" y1="66.9438" x2="129.961" y2="60.8315" stroke="#B6C9D4"/>
<line x1="129.961" y1="79.3596" x2="129.961" y2="73.2472" stroke="#B6C9D4"/>
<line x1="129.961" y1="14.2247" x2="129.961" y2="8.11236" stroke="#B6C9D4"/>
<line x1="129.961" y1="27.0225" x2="129.961" y2="20.9101" stroke="#B6C9D4"/>
<line x1="22.6124" y1="66.9438" x2="22.6124" y2="60.8315" stroke="#B6C9D4"/>
<line x1="22.6124" y1="79.3596" x2="22.6124" y2="73.2472" stroke="#B6C9D4"/>
<line x1="22.6124" y1="14.2247" x2="22.6124" y2="8.11236" stroke="#B6C9D4"/>
<line x1="22.6124" y1="27.0225" x2="22.6124" y2="20.9101" stroke="#B6C9D4"/>
<line x1="93.0225" y1="64.0056" x2="86.9101" y2="64.0056" stroke="#B6C9D4"/>
<line x1="79.6517" y1="64.0056" x2="73.5393" y2="64.0056" stroke="#B6C9D4"/>
<line x1="66.2809" y1="64.0056" x2="60.1685" y2="64.0056" stroke="#B6C9D4"/>
<line x1="46.2247" y1="64.0056" x2="40.1124" y2="64.0056" stroke="#B6C9D4"/>
<line x1="22.9214" y1="64.0056" x2="16.809" y2="64.0056" stroke="#B6C9D4"/>
<line x1="43.2865" y1="2" x2="43.2865" y2="86.0449" stroke="#B6C9D4"/>
<line x1="63.3427" y1="2" x2="63.3427" y2="86.0449" stroke="#B6C9D4" stroke-dasharray="10 10"/>
<line x1="90.0843" y1="2" x2="90.0843" y2="86.0449" stroke="#B6C9D4" stroke-dasharray="10 10"/>
<line x1="22.9214" y1="11.0506" x2="130.079" y2="11.0506" stroke="#B6C9D4" stroke-dasharray="4 4"/>
<line x1="22.9214" y1="76.1854" x2="130.079" y2="76.1854" stroke="#B6C9D4" stroke-dasharray="4 4"/>
<line x1="76.7135" y1="2" x2="76.7135" y2="86.0449" stroke="#B6C9D4"/>
<line x1="109.758" y1="2" x2="109.758" y2="86.0449" stroke="#B6C9D4"/>
<line x1="136.5" y1="2" x2="136.5" y2="86.0449" stroke="#B6C9D4"/>
</svg>
